name rise43.5482peak65.4966fall89.1036.mot
datacolumns 19
datarows 26
range 19.13659100000000 19.17825900000000
endheader
time	ground_force1_vx	ground_force1_vy	ground_force1_vz	ground_force1_px	ground_force1_py	ground_force1_pz	ground_force2_vx	ground_force2_vy	ground_force2_vz	ground_force2_px	ground_force2_py	ground_force2_pz	ground_torque1_x	ground_torque1_y	ground_torque1_z	ground_torque2_x	ground_torque2_y	ground_torque2_z	
19.13659100000000	-6.34637000000000	42.54410800000000	-9.87913800000000	0.28568000000000	0.00000000000000	0.07664300000000	-59.56401700000000	786.61170700000002	-57.50550200000000	0.08447000000000	0.00000000000000	-0.09784600000000	0.00000000000000	-5.94182000000000	0.00000000000000	0.00000000000000	-18.62908000000000	0.00000000000000	
19.13825200000000	-6.83037600000000	49.79497100000000	-11.04422000000000	0.29070000000000	0.00000000000000	0.07767400000000	-60.29116800000000	782.77059399999996	-57.08688200000000	0.08357300000000	0.00000000000000	-0.09769700000000	0.00000000000000	-6.72323300000000	0.00000000000000	0.00000000000000	-18.62785700000000	0.00000000000000	
19.13993900000000	-7.15813200000000	57.12192200000000	-12.08029700000000	0.29538700000000	0.00000000000000	0.07861200000000	-61.02737000000000	778.79618200000004	-56.64454900000000	0.08268100000000	0.00000000000000	-0.09754100000000	0.00000000000000	-7.44308800000000	0.00000000000000	0.00000000000000	-18.62818400000000	0.00000000000000	
19.14159200000000	-7.31161700000000	64.43055699999999	-12.96144300000000	0.29978800000000	0.00000000000000	0.07947000000000	-61.77155600000000	774.68730600000004	-56.17849200000000	0.08179500000000	0.00000000000000	-0.09737900000000	0.00000000000000	-8.08408400000000	0.00000000000000	0.00000000000000	-18.62992800000000	0.00000000000000	
19.14325100000000	-7.28083700000000	71.65044300000000	-13.67107600000000	0.30393500000000	0.00000000000000	0.08026000000000	-62.52256300000000	770.44276100000002	-55.68873000000000	0.08091800000000	0.00000000000000	-0.09721000000000	0.00000000000000	-8.63428900000000	0.00000000000000	0.00000000000000	-18.63293500000000	0.00000000000000	
19.14493300000000	-7.06360400000000	78.73724199999999	-14.20199100000000	0.30785900000000	0.00000000000000	0.08098900000000	-63.27913600000000	766.06130499999995	-55.17531700000000	0.08004900000000	0.00000000000000	-0.09703500000000	0.00000000000000	-9.08733600000000	0.00000000000000	0.00000000000000	-18.63703200000000	0.00000000000000	
19.14659300000000	-6.66471600000000	85.67232799999999	-14.55562100000000	0.31158200000000	0.00000000000000	0.08166700000000	-64.03992300000000	761.54166999999995	-54.63834000000000	0.07919000000000	0.00000000000000	-0.09685300000000	0.00000000000000	-9.44214100000000	0.00000000000000	0.00000000000000	-18.64202200000000	0.00000000000000	
19.14825200000000	-6.09470600000000	92.46035500000001	-14.74071600000000	0.31512300000000	0.00000000000000	0.08229800000000	-64.80348300000000	756.88256500000000	-54.07792100000000	0.07834200000000	0.00000000000000	-0.09666400000000	0.00000000000000	-9.70223000000000	0.00000000000000	0.00000000000000	-18.64768700000000	0.00000000000000	
19.14994000000000	-5.36834100000000	99.12532400000001	-14.77165200000000	0.31849900000000	0.00000000000000	0.08288900000000	-65.56828400000001	752.08268699999996	-53.49422100000000	0.07750500000000	0.00000000000000	-0.09646900000000	0.00000000000000	-9.87479600000000	0.00000000000000	0.00000000000000	-18.65379100000000	0.00000000000000	
19.15159200000000	-4.50303900000000	105.70574100000000	-14.66656600000000	0.32172100000000	0.00000000000000	0.08344400000000	-66.33270700000000	747.14073199999996	-52.88743900000000	0.07668100000000	0.00000000000000	-0.09626700000000	0.00000000000000	-9.96962800000000	0.00000000000000	0.00000000000000	-18.66007600000000	0.00000000000000	
19.15325700000000	-3.51733700000000	112.24942100000000	-14.44551100000000	0.32480200000000	0.00000000000000	0.08396700000000	-67.09504900000000	742.05539899999997	-52.25781300000000	0.07587000000000	0.00000000000000	-0.09605900000000	0.00000000000000	-9.99798700000000	0.00000000000000	0.00000000000000	-18.66626600000000	0.00000000000000	
19.15492100000000	-2.42954100000000	118.80843000000000	-14.12877000000000	0.32775100000000	0.00000000000000	0.08446100000000	-67.85352500000000	736.82540700000004	-51.60562400000000	0.07507300000000	0.00000000000000	-0.09584400000000	0.00000000000000	-9.97157700000000	0.00000000000000	0.00000000000000	-18.67206500000000	0.00000000000000	
19.15658900000000	-1.25662900000000	125.43453500000000	-13.73544600000000	0.33057400000000	0.00000000000000	0.08492800000000	-68.60627400000000	731.44950600000004	-50.93119500000000	0.07429100000000	0.00000000000000	-0.09562200000000	0.00000000000000	-9.90162800000000	0.00000000000000	0.00000000000000	-18.67716300000000	0.00000000000000	
19.15825500000000	-0.01343500000000	132.17543000000001	-13.28237700000000	0.33328000000000	0.00000000000000	0.08537200000000	-69.35136300000001	725.92648799999995	-50.23489300000000	0.07352400000000	0.00000000000000	-0.09539300000000	0.00000000000000	-9.79819300000000	0.00000000000000	0.00000000000000	-18.68122900000000	0.00000000000000	
19.15992300000000	1.28784300000000	139.07191399999999	-12.78341600000000	0.33587200000000	0.00000000000000	0.08579400000000	-70.08678999999999	720.25519999999995	-49.51713000000000	0.07277300000000	0.00000000000000	-0.09515700000000	0.00000000000000	-9.66964100000000	0.00000000000000	0.00000000000000	-18.68392000000000	0.00000000000000	
19.16159000000000	2.63785900000000	146.15603400000001	-12.24906100000000	0.33835700000000	0.00000000000000	0.08619600000000	-70.81049000000000	714.43456300000003	-48.77836300000000	0.07203800000000	0.00000000000000	-0.09491500000000	0.00000000000000	-9.52237100000000	0.00000000000000	0.00000000000000	-18.68488000000000	0.00000000000000	
19.16325400000000	4.03008000000000	153.45019500000001	-11.68640500000000	0.34073700000000	0.00000000000000	0.08658000000000	-71.52034200000000	708.46358399999997	-48.01909500000000	0.07132100000000	0.00000000000000	-0.09466700000000	0.00000000000000	-9.36072600000000	0.00000000000000	0.00000000000000	-18.68373600000000	0.00000000000000	
19.16492700000000	5.46052900000000	160.96709899999999	-11.09934500000000	0.34301700000000	0.00000000000000	0.08694800000000	-72.21417200000000	702.34137399999997	-47.23987800000000	0.07062100000000	0.00000000000000	-0.09441200000000	0.00000000000000	-9.18708000000000	0.00000000000000	0.00000000000000	-18.68010800000000	0.00000000000000	
19.16658700000000	6.92740000000000	168.71039300000001	-10.48899400000000	0.34519900000000	0.00000000000000	0.08730000000000	-72.88976200000000	696.06716200000005	-46.44130900000000	0.06993900000000	0.00000000000000	-0.09415000000000	0.00000000000000	-9.00205500000000	0.00000000000000	0.00000000000000	-18.67360600000000	0.00000000000000	
19.16825500000000	8.43056300000000	176.67581500000000	-9.85422400000000	0.34728600000000	0.00000000000000	0.08763700000000	-73.54485400000000	689.64031399999999	-45.62403600000000	0.06927600000000	0.00000000000000	-0.09388200000000	0.00000000000000	-8.80483900000000	0.00000000000000	0.00000000000000	-18.66382800000000	0.00000000000000	
19.16993200000000	9.97103900000000	184.85269700000001	-9.19227900000000	0.34927900000000	0.00000000000000	0.08796100000000	-74.17716100000000	683.06034799999998	-44.78875100000000	0.06863000000000	0.00000000000000	-0.09360700000000	0.00000000000000	-8.59355000000000	0.00000000000000	0.00000000000000	-18.65037100000000	0.00000000000000	
19.17158700000000	11.55048500000000	193.22560999999999	-8.49939800000000	0.35118100000000	0.00000000000000	0.08827300000000	-74.78436700000000	676.32694900000001	-43.93619800000000	0.06800400000000	0.00000000000000	-0.09332700000000	0.00000000000000	-8.36562200000000	0.00000000000000	0.00000000000000	-18.63282300000000	0.00000000000000	
19.17326000000000	13.17071900000000	201.77603400000001	-7.77139200000000	0.35299300000000	0.00000000000000	0.08857300000000	-75.36414000000001	669.43998599999998	-43.06716400000000	0.06739500000000	0.00000000000000	-0.09304000000000	0.00000000000000	-8.11817300000000	0.00000000000000	0.00000000000000	-18.61077000000000	0.00000000000000	
19.17493000000000	14.83332100000000	210.48390100000000	-7.00416200000000	0.35471700000000	0.00000000000000	0.08886200000000	-75.91414100000000	662.39952200000005	-42.18248500000000	0.06680600000000	0.00000000000000	-0.09274700000000	0.00000000000000	-7.84833500000000	0.00000000000000	0.00000000000000	-18.58380000000000	0.00000000000000	
19.17659400000000	16.53931900000000	219.32894500000000	-6.19410300000000	0.35635300000000	0.00000000000000	0.08914000000000	-76.43202400000000	655.20583099999999	-41.28304400000000	0.06623600000000	0.00000000000000	-0.09244800000000	0.00000000000000	-7.55352300000000	0.00000000000000	0.00000000000000	-18.55149600000000	0.00000000000000	
19.17825900000000	18.28897600000000	228.29177300000001	-5.33841000000000	0.35790300000000	0.00000000000000	0.08940900000000	-76.91545200000000	647.85940100000005	-40.36976800000000	0.06568400000000	0.00000000000000	-0.09214300000000	0.00000000000000	-7.23163800000000	0.00000000000000	0.00000000000000	-18.51344800000000	0.00000000000000	
